<svg width="58" height="79" viewBox="0 0 58 79" fill="#000" xmlns="http://www.w3.org/2000/svg">
<path d="M52.707 60.3929C51.6312 63.4804 50.2424 67.0524 48.572 71.0034C47.7006 73.0623 46.0318 74.6289 43.7402 75.5411C42.0462 76.2143 39.9763 76.5556 37.5903 76.5556C34.8818 76.5556 32.3511 76.1074 31.0802 75.8416L30.6304 75.7456L30.1837 75.8699C29.0418 76.186 26.7438 76.7192 24.1454 76.7192C18.9613 76.7192 14.9662 74.5172 12.89 70.5111C10.5166 65.9247 7.86317 57.34 7.35828 55.6665L7.28593 55.4384L7.16324 55.2323L3.85394 49.7588L3.84765 49.7493L3.84136 49.7383C2.87405 48.1875 2.57048 46.3504 2.97943 44.5605C3.38995 42.769 4.46893 41.2417 6.02921 40.2587L6.12201 40.2005C6.89586 39.7161 7.74677 39.3905 8.64803 39.2442L10.0353 39.0161L10.2193 37.6194C10.2508 37.3898 10.2917 37.1539 10.342 36.9258C10.7761 35.0415 11.9101 33.4356 13.5428 32.4117C14.6312 31.7291 15.8879 31.3453 17.1761 31.3123L18.5759 31.2745L18.9518 29.925C19.4331 28.1838 20.542 26.6943 22.0693 25.738C23.2159 25.0145 24.5418 24.6355 25.9008 24.6355C26.198 24.6355 26.4984 24.6528 26.7957 24.6874L29.0528 24.9595L28.9128 22.6898L28.1956 10.8839C28.216 5.98759 31.0739 2.43607 35.0076 2.43607C37.0398 2.43607 39.0137 3.38451 40.4277 5.03759C41.5885 6.39339 41.8213 8.30285 41.8213 10.9421V11.027L41.8276 11.1136L43.9934 34.9487L44.061 35.7037L44.6304 36.2023C46.9095 38.1967 48.8787 40.0668 50.4846 41.7686C53.8033 45.2887 55.2818 47.7298 55.2818 49.6912C55.2818 51.8869 54.4183 55.4856 52.707 60.3929ZM51.8608 40.4663C49.9042 38.3949 47.688 36.3596 45.8808 34.7741L43.7166 10.9421C43.7166 8.27768 43.5247 5.74537 41.8685 3.80446C40.0958 1.73143 37.5966 0.540771 35.0076 0.540771C29.8077 0.540771 26.3003 5.20588 26.3003 10.9421L27.0206 22.8046C26.651 22.7606 26.2767 22.737 25.9008 22.737C24.1832 22.737 22.5097 23.2214 21.0611 24.1306C19.0572 25.3873 17.7109 27.2999 17.1242 29.417C15.4947 29.461 13.914 29.9391 12.5346 30.8058C10.4757 32.1003 9.04124 34.1214 8.49546 36.5058C8.4294 36.7921 8.37907 37.0831 8.33817 37.3725C7.19627 37.5612 6.10156 37.9749 5.1138 38.5962L5.10437 38.6025L5.09336 38.6088L5.01157 38.6607C3.03133 39.9064 1.65508 41.8504 1.13289 44.1374C0.610698 46.4196 0.999195 48.7616 2.23232 50.7387L5.54162 56.217C6.17706 58.3104 8.78801 66.7142 11.2071 71.3825C13.6246 76.046 18.2205 78.6177 24.1454 78.6177C26.9074 78.6177 29.3327 78.075 30.6917 77.696C32.1151 77.9932 34.7481 78.4509 37.5903 78.4509C40.2154 78.4509 42.5212 78.0656 44.4401 77.2996C47.2162 76.2002 49.2483 74.2781 50.3163 71.7411C52.0008 67.7523 53.407 64.1426 54.497 61.0142C56.3026 55.8379 57.1803 52.1322 57.1803 49.6912C57.1803 47.1777 55.5901 44.4173 51.8608 40.4663Z"/>
<path d="M25.8365 51.9954C24.7937 52.6513 23.5558 52.8557 22.3463 52.5789C21.1368 52.3068 20.1128 51.5786 19.4601 50.5373L17.8007 47.8934L17.3949 47.2485L16.9907 46.6036L14.7006 42.953C14.6927 42.942 14.6896 42.9357 14.6802 42.9263L13.4706 40.9964C12.1148 38.8384 12.7676 35.9758 14.9287 34.6168C15.6695 34.1528 16.5094 33.9138 17.3698 33.9138C17.7189 33.9138 18.0697 33.9547 18.4188 34.0333C19.6268 34.3101 20.6523 35.0368 21.3082 36.078L24.3533 40.9272L24.7575 41.5736L25.1633 42.2185V42.2232L25.3206 42.4717C24.8078 42.9058 24.4901 43.5365 24.4586 44.227C24.4177 45.0559 24.7937 45.8455 25.4668 46.3331L25.5455 46.3913C26.2281 46.8694 27.035 47.3743 27.9913 47.7707C28.0998 49.4143 27.3244 51.0642 25.8365 51.9954Z"/>
<path d="M41.1512 35.1532C40.8272 35.0604 40.4922 35.0132 40.154 35.01C39.4981 35.0038 38.8391 35.1595 38.2351 35.4851L36.1448 36.6049L32.8088 31.2918L31.4152 29.0709L30.8049 10.9421C30.8049 8.09994 32.1183 5.04073 35.0076 5.04073C37.897 5.04073 39.2119 8.09994 39.2119 10.9421"/>
<path d="M26.6244 41.6963L26.3711 41.2905L25.9653 40.644V40.6409L25.5595 39.9992V39.996L22.5915 35.2727L22.5852 35.2586L21.997 34.3243C20.6412 32.1616 21.2939 29.3006 23.455 27.9448C24.2163 27.4666 25.0672 27.2385 25.9071 27.2385C27.4485 27.2385 28.9569 28.0061 29.8346 29.4028L29.9132 29.5286L31.5175 32.083L33.0621 34.5461L34.8032 37.3222L34.2669 37.6084L33.5119 38.0111H33.5088L33.342 38.1039L32.7742 38.4074L32.4534 38.582H32.4502L31.5616 39.057L26.6275 41.6963"/>
<path d="M42.8688 38.1243C42.6156 37.9025 42.3592 37.6776 42.0966 37.4558C41.9707 37.3457 41.8449 37.2372 41.7144 37.1271C41.5822 37.0107 41.4391 36.9163 41.2881 36.833C40.9594 36.6521 40.6024 36.553 40.239 36.5357C39.8018 36.509 39.3551 36.6049 38.9493 36.8204L36.947 37.8884L35.6117 38.6056L35.2263 38.8148L35.22 38.8179L33.4474 39.7664L27.4343 42.9829L26.7643 43.3431L26.607 43.428L26.4372 43.5302C26.3208 43.5979 26.2248 43.6875 26.1493 43.7898V43.7929C26.0439 43.936 25.9826 44.1106 25.9716 44.2994C25.959 44.6234 26.099 44.9175 26.3585 45.1078L26.4167 45.1487C26.714 45.3579 27.0348 45.5687 27.3856 45.7731C27.7206 45.9713 28.0792 46.1601 28.4677 46.3268C28.5464 46.3614 28.625 46.396 28.7084 46.429C28.9223 46.5486 29.3627 46.6854 29.3532 46.6587C30.1412 46.904 31.0299 47.0503 32.0334 47.0204C32.7365 47 33.438 46.8899 34.13 46.6996C35.0895 46.4369 36.0285 46.0154 36.914 45.4523L39.8741 43.5648L41.9393 48.8135L41.038 48.9802C40.5536 49.073 29.1724 51.4465 30.5376 67.5919C30.5754 68.0087 30.2655 68.3736 29.8487 68.4113C29.435 68.4444 29.0623 68.1345 29.0292 67.7177C29.0119 67.5337 28.9978 67.3497 28.9883 67.1578V67.1546C28.6486 62.1749 29.3564 55.5202 34.2873 50.984C36.4421 49.0007 38.6819 48.0963 39.8804 47.7203L39.1364 45.8345L37.7287 46.7326C35.9781 47.854 34.0246 48.4753 32.0822 48.5367C31.1384 48.5634 30.2891 48.4612 29.5137 48.274C29.4492 50.2464 28.4347 52.1558 26.6416 53.2788C25.6586 53.897 24.5371 54.2194 23.3968 54.2194C22.936 54.2194 22.472 54.1644 22.008 54.0574C21.4779 53.9347 20.9762 53.7507 20.5122 53.5085C20.5484 54.0684 20.5043 54.6394 20.3753 55.2024C20.0309 56.7187 19.1186 58.0021 17.8116 58.8247L17.7188 58.8829C17.3633 59.1047 16.9905 59.2903 16.602 59.4303H16.5989C15.9729 59.6552 15.3186 59.7685 14.6564 59.7685C14.2176 59.7685 13.7772 59.7197 13.3399 59.6175C13.1213 59.5703 12.9074 59.5089 12.6982 59.4334C12.6243 59.4051 12.5488 59.3784 12.4733 59.3485C12.2484 59.2589 12.0266 59.1566 11.8143 59.0371C11.5201 58.8767 11.2433 58.6879 10.9854 58.4771C11.668 60.5533 12.5614 63.1454 13.5051 65.4984C14.0682 66.9077 14.6454 68.2336 15.2053 69.3126C16.8553 72.4914 19.8563 74.1067 24.125 74.1145H24.1455C27.4343 74.1145 30.2686 73.1158 30.2954 73.1063L30.5172 73.0277L30.7468 73.089C30.7625 73.0922 31.0126 73.1582 31.4357 73.2495L33.0133 73.5467C36.7976 74.1649 44.1838 74.7012 46.1719 69.9889C50.3651 60.0484 52.6756 52.8384 52.6756 49.6911C52.6756 47.8163 48.9511 43.4343 42.8688 38.1243Z"/>
<path d="M18.8967 54.8643C18.6404 55.9842 17.9719 56.9326 17.0046 57.5413L16.9134 57.5995C16.2433 58.0195 15.4821 58.2381 14.7066 58.2444H14.7035C14.3622 58.2554 14.0193 58.2176 13.678 58.139C13.1385 58.0163 12.6368 57.7977 12.1963 57.4941C12.0359 57.384 11.8865 57.2613 11.7418 57.1308C11.5232 56.9295 11.3266 56.7077 11.152 56.4623V56.4592C11.152 56.4592 11.152 56.456 11.1488 56.456C11.1001 56.3868 11.0529 56.3223 11.0041 56.2468L10.688 55.7419V55.7388L9.82762 54.372L6.06376 48.3762C5.45821 47.4089 5.26475 46.2623 5.52112 45.1424C5.77593 44.0257 6.44911 43.0725 7.41642 42.4686L7.50765 42.4104C8.19499 41.9794 8.97355 41.7576 9.76785 41.7576C10.0903 41.7576 10.4143 41.7954 10.7383 41.8677C11.8582 42.1225 12.8082 42.7957 13.4122 43.7599H13.4153L15.5497 47.1604L15.7825 47.5363L16.1883 48.1812L16.5956 48.8261L18.2094 51.3977L18.3573 51.6336C18.9612 52.5962 19.1531 53.7476 18.8967 54.8643Z" fill="white"/>
</svg>
